<?xml version="1.0" encoding="UTF-8"?>
<svg width="37px" height="26px" viewBox="0 0 37 26" version="1.1" xmlns="http://www.w3.org/2000/svg" xmlns:xlink="http://www.w3.org/1999/xlink">
    <!-- Generator: Sketch 56.3 (81716) - https://sketch.com -->
    <title>noun_Arrow Up_355377</title>
    <desc>Created with Sketch.</desc>
    <defs>
        <filter x="-41.4%" y="-70.6%" width="182.8%" height="241.2%" filterUnits="objectBoundingBox" id="filter-1">
            <feOffset dx="0" dy="2" in="SourceAlpha" result="shadowOffsetOuter1"></feOffset>
            <feGaussianBlur stdDeviation="2" in="shadowOffsetOuter1" result="shadowBlurOuter1"></feGaussianBlur>
            <feColorMatrix values="0 0 0 0 0   0 0 0 0 0   0 0 0 0 0  0 0 0 0.5 0" type="matrix" in="shadowBlurOuter1" result="shadowMatrixOuter1"></feColorMatrix>
            <feMerge>
                <feMergeNode in="shadowMatrixOuter1"></feMergeNode>
                <feMergeNode in="SourceGraphic"></feMergeNode>
            </feMerge>
        </filter>
    </defs>
    <g id="Front-End" stroke="none" stroke-width="1" fill="none" fill-rule="evenodd">
        <g id="01_Howtoguide_Desktop" transform="translate(-498.000000, -397.000000)" fill="#FFFFFF" fill-rule="nonzero">
            <g id="noun_Arrow-Up_355377" filter="url(#filter-1)" transform="translate(516.500000, 408.000000) rotate(-180.000000) translate(-516.500000, -408.000000) translate(502.000000, 399.500000)">
                <path d="M27.2503584,13.500287 C28.2169761,13.500287 29,14.2833182 29,15.2503493 C29,16.2169719 28.2169766,17 27.2503584,17 C26.2837422,17 25.5003083,16.2169719 25.5003083,15.2503493 C25.5003083,14.2833182 26.2837422,13.500287 27.2503584,13.500287 M23.0001516,9.00006114 C23.9663599,9.00006114 24.7497922,9.78391389 24.7497922,10.7501352 C24.7497922,11.7163555 23.9663594,12.5002088 23.0001516,12.5002088 C22.0335365,12.5002088 21.2501021,11.7163555 21.2501021,10.7501352 C21.2501021,9.78391389 22.0335365,9.00006114 23.0001516,9.00006114 M23.0001516,13.500287 C23.9663599,13.500287 24.7497922,14.2833182 24.7497922,15.2503493 C24.7497922,16.2169719 23.9663594,17 23.0001516,17 C22.0335365,17 21.2501021,16.2169719 21.2501021,15.2503493 C21.2501021,14.2833182 22.0335365,13.500287 23.0001516,13.500287 M18.7501058,4.49982864 C19.716313,4.49982864 20.5001559,5.28367473 20.5001559,6.24989144 C20.5001559,7.21732995 19.716313,7.99954065 18.7501058,7.99954065 C17.7834891,7.99954065 16.9996473,7.21732995 16.9996473,6.24989144 C16.9996473,5.28367473 17.7834891,4.49982864 18.7501058,4.49982864 M18.7501058,9.00006114 C19.716313,9.00006114 20.5001559,9.78391389 20.5001559,10.7501352 C20.5001559,11.7163555 19.716313,12.5002083 18.7501058,12.5002083 C17.7834891,12.5002083 16.9996473,11.7163555 16.9996473,10.7501352 C16.9996473,9.78391389 17.7834891,9.00006114 18.7501058,9.00006114 M18.7501058,13.5002865 C19.716313,13.5002865 20.5001559,14.2833182 20.5001559,15.2503487 C20.5001559,16.2169719 19.716313,16.9999995 18.7501058,16.9999995 C17.7834891,16.9999995 16.9996473,16.2169719 16.9996473,15.2503487 C16.9996473,14.2833182 17.7834891,13.5002865 18.7501058,13.5002865 M14.500103,-1.42108547e-14 C15.4667192,-1.42108547e-14 16.2497431,0.783440699 16.2497431,1.74965382 C16.2497431,2.7162754 15.4667187,3.50012406 14.500103,3.50012406 C13.5334863,3.50012406 12.7500524,2.7162754 12.7500524,1.74965382 C12.7500524,0.783440699 13.5334868,-1.42108547e-14 14.500103,-1.42108547e-14 M14.500103,4.49982813 C15.4667192,4.49982813 16.2497431,5.28367422 16.2497431,6.24989144 C16.2497431,7.21732995 15.4667187,7.99954065 14.500103,7.99954065 C13.5334863,7.99954065 12.7500524,7.21732995 12.7500524,6.24989144 C12.7500524,5.28367473 13.5334868,4.49982813 14.500103,4.49982813 M14.500103,9.00006114 C15.4667192,9.00006114 16.2497431,9.78391389 16.2497431,10.7501352 C16.2497431,11.7163555 15.4667187,12.5002083 14.500103,12.5002083 C13.5334863,12.5002083 12.7500524,11.7163555 12.7500524,10.7501352 C12.7500524,9.78391389 13.5334868,9.00006114 14.500103,9.00006114 M14.500103,13.5002865 C15.4667192,13.5002865 16.2497431,14.2833182 16.2497431,15.2503487 C16.2497431,16.2169719 15.4667187,16.9999995 14.500103,16.9999995 C13.5334863,16.9999995 12.7500524,16.2169719 12.7500524,15.2503487 C12.7500524,14.2833182 13.5334868,13.5002865 14.500103,13.5002865 M10.2498952,4.49982864 C11.2165109,4.49982864 12.0003533,5.28367473 12.0003533,6.24989144 C12.0003533,7.21732995 11.2165109,7.99954065 10.2498952,7.99954065 C9.28327903,7.99954065 8.49984567,7.21732995 8.49984567,6.24989144 C8.49984567,5.28367473 9.28327903,4.49982864 10.2498952,4.49982864 M10.2498952,9.00006114 C11.2165109,9.00006114 12.0003533,9.78391389 12.0003533,10.7501352 C12.0003533,11.7163555 11.2165109,12.5002083 10.2498952,12.5002083 C9.28327903,12.5002083 8.49984567,11.7163555 8.49984567,10.7501352 C8.49984567,9.78391389 9.28327903,9.00006114 10.2498952,9.00006114 M10.2498952,13.5002865 C11.2165109,13.5002865 12.0003533,14.2833182 12.0003533,15.2503487 C12.0003533,16.2169719 11.2165109,16.999999 10.2498952,16.999999 C9.28327903,16.999999 8.49984567,16.2169714 8.49984567,15.2503487 C8.49984567,14.2833182 9.28327903,13.5002865 10.2498952,13.5002865 M5.9998494,9.00006114 C6.96646509,9.00006114 7.74989896,9.78391389 7.74989896,10.7501352 C7.74989896,11.7163555 6.96646509,12.5002083 5.9998494,12.5002083 C5.03364268,12.5002083 4.24979983,11.7163555 4.24979983,10.7501352 C4.24979983,9.78391389 5.03364268,9.00006114 5.9998494,9.00006114 M5.9998494,13.5002865 C6.96646509,13.5002865 7.74989896,14.2833182 7.74989896,15.2503487 C7.74989896,16.2169719 6.96646509,16.999999 5.9998494,16.999999 C5.03364268,16.999999 4.24979983,16.2169714 4.24979983,15.2503487 C4.24979983,14.2833182 5.03364268,13.5002865 5.9998494,13.5002865 M1.75004905,13.5002865 C2.71584679,13.5002865 3.5000981,14.2833182 3.5000981,15.2503487 C3.5000981,16.2169719 2.71584679,16.999999 1.75004905,16.999999 C0.783025411,16.999999 0,16.2169714 0,15.2503487 C0,14.2833182 0.783024898,13.5002865 1.75004905,13.5002865" id="Shape"></path>
            </g>
        </g>
    </g>
</svg>