<?xml version="1.0" encoding="UTF-8"?>
<svg width="13px" height="12px" viewBox="0 0 13 12" version="1.1" xmlns="http://www.w3.org/2000/svg" xmlns:xlink="http://www.w3.org/1999/xlink">
    <!-- Generator: Sketch 52.4 (67378) - http://www.bohemiancoding.com/sketch -->
    <title>Annotation</title>
    <desc>Created with Sketch.</desc>
    <g id="Page-1" stroke="none" stroke-width="1" fill="none" fill-rule="evenodd">
        <g id="Painting" transform="translate(-109.000000, -342.000000)">
            <g id="Annotation" transform="translate(110.000000, 343.000000)">
                <g id="Group">
                    <path d="M9.53954802,0.0283018868 L1.46045198,0.0283018868 C0.655649718,0.0283018868 0,0.685534591 0,1.5 L0,6.44968553 C0,7.26415094 0.655649718,7.92138365 1.46045198,7.92138365 L3.98050847,7.92138365 L5.14265537,9.77358491 C5.22033898,9.89622642 5.35084746,9.97169811 5.49378531,9.97169811 C5.63672316,9.97169811 5.76723164,9.89622642 5.84491525,9.77358491 L7.00706215,7.92138365 L9.53954802,7.92138365 C10.3443503,7.92138365 11,7.26415094 11,6.44968553 L11,1.5 C11,0.685534591 10.3443503,0.0283018868 9.53954802,0.0283018868 Z" id="Shape" stroke="#000000" stroke-width="0.6" fill="#FFFFFF" fill-rule="nonzero"></path>
                    <rect id="Rectangle" fill="#000000" x="2.45480226" y="2.22955975" width="6.02824859" height="1"></rect>
                    <rect id="Rectangle" fill="#000000" x="2.45480226" y="3.70754717" width="6.02824859" height="1"></rect>
                    <rect id="Rectangle" fill="#000000" x="2.45480226" y="5.18553459" width="3.04519774" height="1"></rect>
                </g>
            </g>
        </g>
    </g>
</svg>