<?xml version="1.0" encoding="UTF-8"?>
<svg width="40px" height="43px" viewBox="0 0 40 43" version="1.1" xmlns="http://www.w3.org/2000/svg" xmlns:xlink="http://www.w3.org/1999/xlink">
    <!-- Generator: Sketch 59.1 (86144) - https://sketch.com -->
    <title>noun_archive_750184</title>
    <desc>Created with Sketch.</desc>
    <g id="Page-1" stroke="none" stroke-width="1" fill="none" fill-rule="evenodd">
        <g id="02timeline" transform="translate(-337.000000, -99.000000)" fill="#000000" fill-rule="nonzero">
            <g id="Tip1" transform="translate(313.000000, 60.000000)">
                <g id="noun_archive_750184" transform="translate(24.500000, 39.000000)">
                    <path d="M37.4906191,20.0000348 L26.6492379,20.0000348 C26.4356415,19.9992889 12.5691975,19.9992889 12.3556012,20.0000348 L1.51921594,20.0000348 C1.11765748,19.9992889 0.73249499,20.1563963 0.450065902,20.436774 C0.152821475,20.7329758 -0.00942253045,21.134914 0.000423361955,21.5507045 L1.42928743,41.5278452 C1.44523507,42.3343165 2.10702328,42.984336 2.9280959,43 L36.0717471,43 C36.8995162,43 37.5705556,42.3408938 37.5705556,41.5278452 L38.9997205,21.5016327 C39.0075191,21.1044087 38.8518133,20.7208333 38.5676787,20.4380551 C38.2835441,20.1552768 37.8951065,19.9973064 37.4906191,20.0000348 Z M35.9918107,41.1971875 C35.9814469,41.3097764 35.885997,41.3958217 35.7719854,41.3953555 L3.18289334,41.3953555 C3.09380544,41.3931517 3.02063919,41.3248665 3.01302838,41.2368207 L1.61913651,21.5539713 C1.61495316,21.5120139 1.62956668,21.4703522 1.65910473,21.4400258 C1.68763472,21.410273 1.72763814,21.3940452 1.76901735,21.3953555 L12.0108752,21.3953555 L26.9989599,21.3953555 L37.1408972,21.3953555 C37.2110019,21.394968 37.2780795,21.4237314 37.3257502,21.4747048 C37.373531,21.5253729 37.3971693,21.5938904 37.3906986,21.6629626 L35.9918107,41.1971875 Z" id="Shape"></path>
                    <path d="M3.89903272,19 L3.92372667,19 C4.11378947,18.9874226 4.29147566,18.8920706 4.41751378,18.735018 C4.5435519,18.5779655 4.60756396,18.3721443 4.5954023,18.163044 L4.41760581,15.5760893 L16.9868299,15.5760893 C16.9868299,15.5760893 17.0164626,14.0597859 16.9868299,14 L4.33858515,14 C3.98473666,13.9991693 3.64520592,14.1537069 3.39527599,14.4293509 C3.13665777,14.7188581 2.99433621,15.1103943 3.00017268,15.5163067 L3.19278555,18.2336962 C3.20080079,18.6574337 3.51389151,18.9971485 3.89903272,19 L3.89903272,19 Z" id="Path"></path>
                    <path d="M23.0134551,14.0217391 C22.9831812,14.0815217 23.0134551,15.5978256 23.0134551,15.5978256 L35.5367612,15.5978256 L35.3500721,18.1902161 C35.3435485,18.3897838 35.4085934,18.5843985 35.5317155,18.7336942 C35.6713228,18.8998568 35.8686169,18.9962733 36.0766458,19 C36.4608362,19.0008075 36.7792084,18.6793147 36.8032196,18.266303 L37,15.4782604 C37,14.6618397 36.3855479,14 35.6275829,14 L23.0134551,14.0217391 Z" id="Path"></path>
                    <path d="M4.91392216,12 L4.95453057,12 C5.14987563,11.9891218 5.3325001,11.9066554 5.46204109,11.7708265 C5.59158209,11.6349976 5.65737319,11.4569904 5.64487353,11.2761474 L5.47736384,9.36310977 L17,9.36310977 L17,8 L5.3250823,8 C4.97467794,7.99858871 4.63827237,8.12725419 4.39108889,8.35723739 C4.13435511,8.59864782 3.99346644,8.92564634 4.00023295,9.26440267 L4.17789474,11.3513528 C4.19686764,11.7148544 4.52090686,12.0004238 4.91392216,12 Z" id="Path"></path>
                    <path d="M22,9.36310223 L33.4822071,9.36310223 L33.3106757,11.2808461 C33.3022353,11.4673129 33.3775669,11.6489376 33.5195297,11.7843938 C33.6614925,11.91985 33.8580126,11.9976171 34.0643743,12 C34.459146,11.9983877 34.785653,11.7215887 34.8128749,11.3654524 L35,9.22679201 C35,8.54925349 34.3926038,8 33.6433427,8 L22,8 L22,9.36310223 Z" id="Path"></path>
                    <path d="M16.2299539,5.47550837 L17.1221578,4.58890492 L18.5477443,3.18105658 L19.2944801,2.44059656 L19.2944801,17.2692829 C19.2944801,17.6728468 19.6201214,18 20.0218202,18 C20.423519,18 20.7491603,17.6728468 20.7491603,17.2692829 L20.7491603,2.47956814 L21.4571046,3.18105658 L22.8778422,4.59377637 L23.7700461,5.48037982 C24.0540166,5.76531408 24.5140495,5.76531408 24.79802,5.48037982 C25.0253584,5.24439585 25.0652303,4.88388277 24.8949987,4.60351926 C24.8680617,4.547265 24.833821,4.49484633 24.7931711,4.44763294 L23.5275994,3.19079948 L20.5358072,0.219216477 C20.5140515,0.203281306 20.4913842,0.188641824 20.4679221,0.175373449 C20.4169237,0.130132513 20.3597808,0.0924071238 20.2982094,0.0633301554 C20.2051201,0.0216332299 20.1043471,0 20.0024245,0 L20.0024245,0 C19.8118552,-0.000365929523 19.6288591,0.0749232772 19.4932864,0.209473582 L16.5014942,3.18105658 L15.2068289,4.43789005 C15.1661331,4.48506855 15.1318881,4.53749364 15.1050013,4.59377637 C14.9347697,4.87413988 14.9746416,5.23465296 15.20198,5.47063693 C15.4846109,5.75692136 15.9446474,5.75910142 16.2299539,5.47550837 Z" id="Path"></path>
                </g>
            </g>
        </g>
    </g>
</svg>