<?xml version="1.0" encoding="UTF-8"?>
<svg width="17px" height="18px" viewBox="0 0 17 18" version="1.1" xmlns="http://www.w3.org/2000/svg" xmlns:xlink="http://www.w3.org/1999/xlink">
    <!-- Generator: Sketch 52.4 (67378) - http://www.bohemiancoding.com/sketch -->
    <title>Icon Close</title>
    <desc>Created with Sketch.</desc>
    <g id="Front-End" stroke="none" stroke-width="1" fill="none" fill-rule="evenodd">
        <g id="04_Carousel_Desktop" transform="translate(-30.000000, -584.000000)" fill="#000000">
            <g id="Close" transform="translate(30.000000, 584.000000)">
                <g id="Icon-Close">
                    <path d="M14.5611702,0.443051365 L8.5,6.86075102 L2.43882977,0.443051365 C1.88092407,-0.147672443 0.976371586,-0.147695133 0.418437312,0.443051365 C-0.139489819,1.03379786 -0.139468389,1.99158221 0.418437312,2.58227954 L6.47961111,9.00000567 L0.418437312,15.4177318 C-0.139468389,16.0084291 -0.139489819,16.9662135 0.418437312,17.5569486 C0.976368015,18.1476838 1.88092407,18.1476838 2.43882977,17.5569486 L8.5,11.1392225 L14.5611702,17.5569486 C15.1190759,18.1476838 16.0236284,18.1476838 16.5815627,17.5569486 C17.1394898,16.9662135 17.1394684,16.0084291 16.5815627,15.4177318 L10.5203889,9.00000567 L16.5815627,2.58227954 C17.1394684,1.99158221 17.1394898,1.03379786 16.5815627,0.443051365 C16.023632,-0.147695133 15.1190759,-0.147672443 14.5611702,0.443051365 Z" id="Shape" fill-rule="nonzero"></path>
                </g>
            </g>
        </g>
    </g>
</svg>