<?xml version="1.0" encoding="UTF-8"?>
<svg width="62px" height="50px" viewBox="0 0 62 50" version="1.1" xmlns="http://www.w3.org/2000/svg" xmlns:xlink="http://www.w3.org/1999/xlink">
    <!-- Generator: Sketch 50.2 (55047) - http://www.bohemiancoding.com/sketch -->
    <title>Group 3</title>
    <desc>Created with Sketch.</desc>
    <defs></defs>
    <g id="Front-End" stroke="none" stroke-width="1" fill="none" fill-rule="evenodd">
        <g id="01_Howtoguide_Desktop" transform="translate(-37.000000, -558.000000)">
            <g id="Group-3" transform="translate(38.000000, 560.000000)">
                <g id="Group" transform="translate(7.000000, 0.000000)" fill-rule="nonzero">
                    <path d="M37.7534247,9.21290323 C39.2493151,9.00967742 40.8164384,9.5516129 41.8849315,10.5 C42.739726,11.2451613 43.2383562,12.3290323 43.3808219,13.4129032 C43.5232877,14.5645161 43.1671233,15.783871 42.4547945,16.7322581 C41.7424658,17.6129032 40.7452055,18.2903226 39.6054795,18.5612903 C38.2520548,18.9 36.7561644,18.6290323 35.6164384,17.9516129 C34.4054795,17.2064516 33.6219178,15.9870968 33.4082192,14.7 C33.1945205,13.3451613 33.6219178,11.9903226 34.4767123,10.9741935 C35.3315068,9.95806452 36.4712329,9.3483871 37.7534247,9.21290323 Z" id="Shape" fill="#000000"></path>
                    <path d="M23.7205479,-5.68434189e-14 L27.4246575,-5.68434189e-14 C27.6383562,-5.68434189e-14 27.7808219,-5.68434189e-14 27.9945205,-5.68434189e-14 C32.9808219,0.0677419355 37.9671233,0.135483871 42.9534247,0.338709677 C44.9479452,0.338709677 46.9424658,1.01612903 48.4383562,2.23548387 C49.5068493,3.0483871 50.290411,4.06451613 50.860274,5.21612903 C51.3589041,6.3 51.6438356,7.4516129 51.6438356,8.60322581 C51.9287671,12.5322581 52,16.5290323 52,20.4580645 C52,24.5903226 51.9287671,28.7225806 51.7150685,32.8548387 C51.6438356,33.2612903 51.7150685,33.6677419 51.6438356,34.0741935 C51.5013699,35.4290323 51.0027397,36.716129 50.2191781,37.8677419 C49.4356164,39.0193548 48.2958904,39.9677419 47.0136986,40.6451613 C45.7315068,41.3225806 44.3068493,41.6612903 42.8821918,41.6612903 C37.2547945,41.8645161 31.5561644,42 25.9287671,42 L24.1479452,42 C19.660274,42 15.1013699,41.9322581 10.6136986,41.7290323 C10.1150685,41.7290323 9.54520548,41.6612903 9.04657534,41.6612903 C7.69315068,41.5935484 6.33972603,41.2548387 5.12876712,40.6451613 C3.9890411,40.0354839 2.92054795,39.1548387 2.1369863,38.1387097 C1.13972603,36.783871 0.569863014,35.0903226 0.498630137,33.3967742 C0.284931507,29.9419355 0.21369863,26.4870968 0.142465753,22.9645161 C0.142465753,22.8967742 0.142465753,22.8290323 0.142465753,22.8290323 L0.142465753,20.4580645 C0.21369863,20.1870968 0.142465753,19.8483871 0.142465753,19.5774194 C0.142465753,16.1225806 0.21369863,12.6 0.42739726,9.14516129 C0.498630137,8.73870968 0.42739726,8.33225806 0.498630137,7.92580645 C0.569863014,7.18064516 0.783561644,6.36774194 1.06849315,5.69032258 C1.70958904,4.13225806 2.84931507,2.77741935 4.2739726,1.82903226 C5.55616438,1.01612903 7.05205479,0.474193548 8.61917808,0.338709677 C13.6054795,0.135483871 18.5917808,-5.68434189e-14 23.5068493,-5.68434189e-14 C23.5780822,-5.68434189e-14 23.6493151,-5.68434189e-14 23.7205479,-5.68434189e-14 Z" id="Shape" stroke="#000000" stroke-width="4" fill="#FFFFFF"></path>
                </g>
                <path d="M23.7291954,6 L27.4570449,6 C27.6721131,6 27.8154919,6 28.0305602,6 C33.048819,6.06736499 38.0670779,6.13472998 43.0853367,6.33682495 C45.0926403,6.33682495 47.0999438,7.01047486 48.6054215,8.22304469 C49.6807627,9.03142458 50.4693462,10.0418994 51.0428615,11.1871043 C51.5446874,12.2649441 51.831445,13.410149 51.831445,14.5553538 C52.1182027,18.4625233 52.1898921,22.4370577 52.1898921,26.3442272 C52.1898921,30.4534916 52.1182027,34.5627561 51.9031344,38.6720205 C51.831445,39.0762104 51.9031344,39.4804004 51.831445,39.8845903 C51.6880662,41.2318901 51.1862403,42.511825 50.3976568,43.6570298 C49.6090733,44.8022346 48.4620427,45.7453445 47.1716332,46.4189944 C45.8812238,47.0926443 44.4474356,47.4294693 43.0136473,47.4294693 C37.3501838,47.6315642 31.6150308,47.7662942 25.9515672,47.7662942 L24.1593319,47.7662942 C19.6428989,47.7662942 15.0547766,47.6989292 10.5383436,47.4968343 C10.0365177,47.4968343 9.46300241,47.4294693 8.96117653,47.4294693 C7.59907769,47.3621043 6.23697886,47.0252793 5.01825886,46.4189944 C3.87122826,45.8127095 2.79588708,44.9369646 2.00730354,43.9264898 C1.00365177,42.5791899 0.430136473,40.8950652 0.358447061,39.2109404 C0.143378824,35.7753259 0.0716894122,32.3397114 0,28.8367318 C0,28.7693669 0,28.7020019 0,28.7020019 L0,26.3442272 C0.0716894122,26.0747672 0,25.7379423 0,25.4684823 C0,22.0328678 0.0716894122,18.5298883 0.286757649,15.0942737 C0.358447061,14.6900838 0.286757649,14.2858939 0.358447061,13.8817039 C0.430136473,13.140689 0.64520471,12.3323091 0.931962359,11.6586592 C1.57716707,10.1092644 2.72419766,8.76196462 4.15798591,7.81885475 C5.44839533,7.01047486 6.95387298,6.47155493 8.53104005,6.33682495 C13.5492989,6.13472998 18.5675578,6 23.5141272,6 C23.5858166,6 23.657506,6 23.7291954,6 Z" id="Path" fill="#FFFFFF"></path>
                <g id="noun_gallery_1181726" transform="translate(0.000000, 5.000000)" fill="#000000" fill-rule="nonzero">
                    <g id="Group" transform="translate(0.000000, 0.368250)">
                        <path d="M23.8725743,-4.26325641e-14 L27.6004237,-4.26325641e-14 C27.8154919,-4.26325641e-14 27.9588708,-4.26325641e-14 28.173939,-4.26325641e-14 C33.1921979,0.0673649907 38.2104567,0.134729981 43.2287156,0.336824953 C45.2360191,0.336824953 47.2433227,1.01047486 48.7488003,2.22304469 C49.8241415,3.03142458 50.612725,4.04189944 51.1862403,5.18710428 C51.6880662,6.26494413 51.9748239,7.41014898 51.9748239,8.55535382 C52.2615815,12.4625233 52.3332709,16.4370577 52.3332709,20.3442272 C52.3332709,24.4534916 52.2615815,28.5627561 52.0465133,32.6720205 C51.9748239,33.0762104 52.0465133,33.4804004 51.9748239,33.8845903 C51.831445,35.2318901 51.3296191,36.511825 50.5410356,37.6570298 C49.7524521,38.8022346 48.6054215,39.7453445 47.3150121,40.4189944 C46.0246026,41.0926443 44.5908144,41.4294693 43.1570262,41.4294693 C37.4935626,41.6315642 31.7584096,41.7662942 26.094946,41.7662942 L24.3027107,41.7662942 C19.7862778,41.7662942 15.1981554,41.6989292 10.6817224,41.4968343 C10.1798965,41.4968343 9.60638124,41.4294693 9.10455535,41.4294693 C7.74245652,41.3621043 6.38035769,41.0252793 5.16163768,40.4189944 C4.01460708,39.8127095 2.9392659,38.9369646 2.15068237,37.9264898 C1.1470306,36.5791899 0.573515298,34.8950652 0.501825886,33.2109404 C0.286757649,29.7753259 0.215068237,26.3397114 0.143378824,22.8367318 C0.143378824,22.7693669 0.143378824,22.7020019 0.143378824,22.7020019 L0.143378824,20.3442272 C0.215068237,20.0747672 0.143378824,19.7379423 0.143378824,19.4684823 C0.143378824,16.0328678 0.215068237,12.5298883 0.430136473,9.09427374 C0.501825886,8.6900838 0.430136473,8.28589386 0.501825886,7.88170391 C0.573515298,7.14068901 0.788583534,6.33230913 1.07534118,5.65865922 C1.72054589,4.10926443 2.86757649,2.76196462 4.30136473,1.81885475 C5.59177415,1.01047486 7.09725181,0.471554935 8.67441888,0.336824953 C13.6926777,0.134729981 18.7109366,-4.26325641e-14 23.657506,-4.26325641e-14 C23.7291954,-4.26325641e-14 23.8008849,-4.26325641e-14 23.8725743,-4.26325641e-14 Z M9.391313,3.09878957 C8.74610829,3.09878957 8.02921417,3.23351955 7.38400946,3.43561453 C6.23697886,3.83980447 5.23332709,4.58081937 4.51643297,5.52392924 C3.87122826,6.46703911 3.5127812,7.54487896 3.5127812,8.62271881 C3.29771296,11.5867784 3.22602355,14.618203 3.22602355,17.5822626 C3.15433414,21.758892 3.22602355,26.0028864 3.36940237,30.1795158 C7.38400946,26.9459963 11.470306,23.5777467 15.484913,20.2768622 C15.6282919,20.1421322 15.7716707,20.0747672 15.9867389,20.0074022 C17.0620801,19.6032123 18.2808001,19.7379423 19.2127625,20.3442272 C19.5712095,20.5463222 19.7862778,20.8157821 20.0730354,21.0852421 C26.7401508,26.9459963 33.4072661,32.8067505 40.1460708,38.6675047 C40.2177603,38.7348696 40.3611391,38.7348696 40.4328285,38.7348696 C41.1497226,38.7348696 41.9383061,38.6675047 42.6552003,38.6675047 C43.0853367,38.6675047 43.5154732,38.6675047 43.9456097,38.6001397 C45.3793979,38.3980447 46.6698074,37.7243948 47.6017697,36.7139199 C48.5337321,35.7034451 49.035558,34.4235102 49.035558,33.0762104 C49.1789368,31.0552607 49.2506262,29.034311 49.3223156,27.0133613 C49.394005,22.8367318 49.394005,18.7274674 49.3223156,14.550838 C49.2506262,12.5972533 49.1789368,10.6436685 49.035558,8.6900838 C49.035558,8.15116387 48.9638685,7.61224395 48.8204897,7.07332402 C48.4620427,5.92811918 47.6734591,4.91764432 46.6698074,4.17662942 C45.6661556,3.43561453 44.4474356,3.09878957 43.1570262,3.09878957 C41.7232379,3.03142458 40.3611391,3.03142458 38.9273508,2.96405959 C29.0342119,2.76196462 19.2127625,2.69459963 9.391313,3.09878957 Z M17.0620801,22.4325419 C16.7753225,22.7020019 16.4885648,22.9040968 16.2018072,23.1735568 C11.9721318,26.6765363 7.74245652,30.1121508 3.58447061,33.6151304 C3.72784944,35.0297952 4.44474356,36.377095 5.59177415,37.3202048 C6.52373651,38.1285847 7.74245652,38.6001397 9.03286594,38.6675047 C18.0657319,39.0716946 27.2419766,39.0716946 36.346532,38.8695996 C30.1812425,33.4804004 24.0159531,28.0912011 17.9223531,22.6346369 C17.7072848,22.4325419 17.3488378,22.2978119 17.0620801,22.4325419 Z" id="Shape" stroke="#000000"></path>
                        <path d="M37.9953885,9.16163873 C39.5008661,8.95954376 41.0780332,9.49846369 42.1533744,10.4415736 C43.0136473,11.1825885 43.5154732,12.2604283 43.658852,13.3382682 C43.8022309,14.483473 43.4437838,15.6960428 42.7268897,16.6391527 C42.0099956,17.5148976 41.0063438,18.1885475 39.8593132,18.4580074 C38.4972144,18.7948324 36.9917367,18.5253724 35.8447061,17.8517225 C34.6259861,17.1107076 33.8374026,15.8981378 33.6223343,14.618203 C33.4072661,13.2709032 33.8374026,11.9236034 34.6976755,10.9131285 C35.5579485,9.90265363 36.7049791,9.29636872 37.9953885,9.16163873 Z" id="Shape"></path>
                    </g>
                </g>
            </g>
        </g>
    </g>
</svg>