<?xml version="1.0" encoding="UTF-8"?>
<svg width="166px" height="166px" viewBox="0 0 166 166" version="1.1" xmlns="http://www.w3.org/2000/svg" xmlns:xlink="http://www.w3.org/1999/xlink">
    <!-- Generator: Sketch 56.3 (81716) - https://sketch.com -->
    <title>wizard</title>
    <desc>Created with Sketch.</desc>
    <defs>
        <filter x="-41.4%" y="-70.6%" width="182.8%" height="241.2%" filterUnits="objectBoundingBox" id="filter-1">
            <feOffset dx="0" dy="2" in="SourceAlpha" result="shadowOffsetOuter1"></feOffset>
            <feGaussianBlur stdDeviation="2" in="shadowOffsetOuter1" result="shadowBlurOuter1"></feGaussianBlur>
            <feColorMatrix values="0 0 0 0 0   0 0 0 0 0   0 0 0 0 0  0 0 0 0.5 0" type="matrix" in="shadowBlurOuter1" result="shadowMatrixOuter1"></feColorMatrix>
            <feMerge>
                <feMergeNode in="shadowMatrixOuter1"></feMergeNode>
                <feMergeNode in="SourceGraphic"></feMergeNode>
            </feMerge>
        </filter>
        <filter x="-41.4%" y="-70.6%" width="182.8%" height="241.2%" filterUnits="objectBoundingBox" id="filter-2">
            <feOffset dx="0" dy="2" in="SourceAlpha" result="shadowOffsetOuter1"></feOffset>
            <feGaussianBlur stdDeviation="2" in="shadowOffsetOuter1" result="shadowBlurOuter1"></feGaussianBlur>
            <feColorMatrix values="0 0 0 0 0   0 0 0 0 0   0 0 0 0 0  0 0 0 0.5 0" type="matrix" in="shadowBlurOuter1" result="shadowMatrixOuter1"></feColorMatrix>
            <feMerge>
                <feMergeNode in="shadowMatrixOuter1"></feMergeNode>
                <feMergeNode in="SourceGraphic"></feMergeNode>
            </feMerge>
        </filter>
        <filter x="-41.4%" y="-70.6%" width="182.8%" height="241.2%" filterUnits="objectBoundingBox" id="filter-3">
            <feOffset dx="0" dy="2" in="SourceAlpha" result="shadowOffsetOuter1"></feOffset>
            <feGaussianBlur stdDeviation="2" in="shadowOffsetOuter1" result="shadowBlurOuter1"></feGaussianBlur>
            <feColorMatrix values="0 0 0 0 0   0 0 0 0 0   0 0 0 0 0  0 0 0 0.5 0" type="matrix" in="shadowBlurOuter1" result="shadowMatrixOuter1"></feColorMatrix>
            <feMerge>
                <feMergeNode in="shadowMatrixOuter1"></feMergeNode>
                <feMergeNode in="SourceGraphic"></feMergeNode>
            </feMerge>
        </filter>
        <filter x="-41.4%" y="-70.6%" width="182.8%" height="241.2%" filterUnits="objectBoundingBox" id="filter-4">
            <feOffset dx="0" dy="2" in="SourceAlpha" result="shadowOffsetOuter1"></feOffset>
            <feGaussianBlur stdDeviation="2" in="shadowOffsetOuter1" result="shadowBlurOuter1"></feGaussianBlur>
            <feColorMatrix values="0 0 0 0 0   0 0 0 0 0   0 0 0 0 0  0 0 0 0.5 0" type="matrix" in="shadowBlurOuter1" result="shadowMatrixOuter1"></feColorMatrix>
            <feMerge>
                <feMergeNode in="shadowMatrixOuter1"></feMergeNode>
                <feMergeNode in="SourceGraphic"></feMergeNode>
            </feMerge>
        </filter>
    </defs>
    <g id="Front-End" stroke="none" stroke-width="1" fill="none" fill-rule="evenodd">
        <g id="01_Howtoguide_Desktop" transform="translate(-434.000000, -257.000000)">
            <g id="wizard." transform="translate(438.000000, 259.000000)">
                <circle id="Oval-4" stroke="#FFFFFF" stroke-width="3" fill-opacity="0.493914176" fill="#000000" cx="78" cy="79" r="48"></circle>
                <path d="M89.875,65.0625 C89.0273125,65.0625 88.237375,65.3203125 87.5815,65.759625 C87.016375,64.155 85.4839375,63 83.6875,63 C82.4561875,63 81.3506875,63.5424375 80.59375,64.4004375 C79.8368125,63.5424375 78.7313125,63 77.5,63 C75.7035625,63 74.171125,64.155 73.606,65.759625 C72.950125,65.3203125 72.16225,65.0625 71.3125,65.0625 C69.0375625,65.0625 67.1875,66.9125625 67.1875,69.1875 L67.1875,73.8673125 C66.581125,73.514625 65.87575,73.3125 65.125,73.3125 C62.8500625,73.3125 61,75.1625625 61,77.4375 L61,84.65625 C61,88.4925 63.6338125,91.7285625 67.1875,92.6443125 L67.1875,96 L89.875,96 L89.875,93.5848125 C92.27575,92.733 94,90.4395 94,87.75 L94,69.1875 C94,66.9125625 92.1499375,65.0625 89.875,65.0625 Z M91.9375,87.75 C91.9375,90.027 90.0895,91.875 87.8125,91.875 L87.8125,93.9375 L69.25,93.9375 L69.25,90.84375 C65.8324375,90.84375 63.0625,88.0738125 63.0625,84.65625 L63.0625,77.4375 C63.0625,76.299 63.9865,75.375 65.125,75.375 C66.2635,75.375 67.1875,76.299 67.1875,77.4375 L67.1875,82.59375 C67.1875,83.163 67.6495,83.625 68.21875,83.625 C68.788,83.625 69.25,83.163 69.25,82.59375 L69.25,69.1875 C69.25,68.049 70.174,67.125 71.3125,67.125 C72.451,67.125 73.375,68.049 73.375,69.1875 L73.375,76.40625 C73.375,76.9755 73.837,77.4375 74.40625,77.4375 C74.9755,77.4375 75.4375,76.9755 75.4375,76.40625 L75.4375,67.125 C75.4375,65.9865 76.3615,65.0625 77.5,65.0625 C78.6405625,65.0625 79.5625,65.9865 79.5625,67.125 L79.5625,76.40625 C79.5625,76.9755 80.0245,77.4375 80.59375,77.4375 C81.163,77.4375 81.625,76.9755 81.625,76.40625 L81.625,67.125 C81.625,65.9865 82.5469375,65.0625 83.6875,65.0625 C84.8280625,65.0625 85.75,65.9865 85.75,67.125 L85.75,76.40625 C85.75,76.9755 86.212,77.4375 86.78125,77.4375 C87.3505,77.4375 87.8125,76.9755 87.8125,76.40625 L87.8125,69.1875 C87.8125,68.049 88.7344375,67.125 89.875,67.125 C91.0155625,67.125 91.9375,68.049 91.9375,69.1875 L91.9375,87.75 Z" id="Shape" fill="#FFFFFF" fill-rule="nonzero"></path>
                <g id="noun_Arrow-Up_355377" filter="url(#filter-1)" transform="translate(64.000000, 0.500000)" fill="#FFFFFF" fill-rule="nonzero">
                    <path d="M27.2503584,13.500287 C28.2169761,13.500287 29,14.2833182 29,15.2503493 C29,16.2169719 28.2169766,17 27.2503584,17 C26.2837422,17 25.5003083,16.2169719 25.5003083,15.2503493 C25.5003083,14.2833182 26.2837422,13.500287 27.2503584,13.500287 M23.0001516,9.00006114 C23.9663599,9.00006114 24.7497922,9.78391389 24.7497922,10.7501352 C24.7497922,11.7163555 23.9663594,12.5002088 23.0001516,12.5002088 C22.0335365,12.5002088 21.2501021,11.7163555 21.2501021,10.7501352 C21.2501021,9.78391389 22.0335365,9.00006114 23.0001516,9.00006114 M23.0001516,13.500287 C23.9663599,13.500287 24.7497922,14.2833182 24.7497922,15.2503493 C24.7497922,16.2169719 23.9663594,17 23.0001516,17 C22.0335365,17 21.2501021,16.2169719 21.2501021,15.2503493 C21.2501021,14.2833182 22.0335365,13.500287 23.0001516,13.500287 M18.7501058,4.49982864 C19.716313,4.49982864 20.5001559,5.28367473 20.5001559,6.24989144 C20.5001559,7.21732995 19.716313,7.99954065 18.7501058,7.99954065 C17.7834891,7.99954065 16.9996473,7.21732995 16.9996473,6.24989144 C16.9996473,5.28367473 17.7834891,4.49982864 18.7501058,4.49982864 M18.7501058,9.00006114 C19.716313,9.00006114 20.5001559,9.78391389 20.5001559,10.7501352 C20.5001559,11.7163555 19.716313,12.5002083 18.7501058,12.5002083 C17.7834891,12.5002083 16.9996473,11.7163555 16.9996473,10.7501352 C16.9996473,9.78391389 17.7834891,9.00006114 18.7501058,9.00006114 M18.7501058,13.5002865 C19.716313,13.5002865 20.5001559,14.2833182 20.5001559,15.2503487 C20.5001559,16.2169719 19.716313,16.9999995 18.7501058,16.9999995 C17.7834891,16.9999995 16.9996473,16.2169719 16.9996473,15.2503487 C16.9996473,14.2833182 17.7834891,13.5002865 18.7501058,13.5002865 M14.500103,-1.42108547e-14 C15.4667192,-1.42108547e-14 16.2497431,0.783440699 16.2497431,1.74965382 C16.2497431,2.7162754 15.4667187,3.50012406 14.500103,3.50012406 C13.5334863,3.50012406 12.7500524,2.7162754 12.7500524,1.74965382 C12.7500524,0.783440699 13.5334868,-1.42108547e-14 14.500103,-1.42108547e-14 M14.500103,4.49982813 C15.4667192,4.49982813 16.2497431,5.28367422 16.2497431,6.24989144 C16.2497431,7.21732995 15.4667187,7.99954065 14.500103,7.99954065 C13.5334863,7.99954065 12.7500524,7.21732995 12.7500524,6.24989144 C12.7500524,5.28367473 13.5334868,4.49982813 14.500103,4.49982813 M14.500103,9.00006114 C15.4667192,9.00006114 16.2497431,9.78391389 16.2497431,10.7501352 C16.2497431,11.7163555 15.4667187,12.5002083 14.500103,12.5002083 C13.5334863,12.5002083 12.7500524,11.7163555 12.7500524,10.7501352 C12.7500524,9.78391389 13.5334868,9.00006114 14.500103,9.00006114 M14.500103,13.5002865 C15.4667192,13.5002865 16.2497431,14.2833182 16.2497431,15.2503487 C16.2497431,16.2169719 15.4667187,16.9999995 14.500103,16.9999995 C13.5334863,16.9999995 12.7500524,16.2169719 12.7500524,15.2503487 C12.7500524,14.2833182 13.5334868,13.5002865 14.500103,13.5002865 M10.2498952,4.49982864 C11.2165109,4.49982864 12.0003533,5.28367473 12.0003533,6.24989144 C12.0003533,7.21732995 11.2165109,7.99954065 10.2498952,7.99954065 C9.28327903,7.99954065 8.49984567,7.21732995 8.49984567,6.24989144 C8.49984567,5.28367473 9.28327903,4.49982864 10.2498952,4.49982864 M10.2498952,9.00006114 C11.2165109,9.00006114 12.0003533,9.78391389 12.0003533,10.7501352 C12.0003533,11.7163555 11.2165109,12.5002083 10.2498952,12.5002083 C9.28327903,12.5002083 8.49984567,11.7163555 8.49984567,10.7501352 C8.49984567,9.78391389 9.28327903,9.00006114 10.2498952,9.00006114 M10.2498952,13.5002865 C11.2165109,13.5002865 12.0003533,14.2833182 12.0003533,15.2503487 C12.0003533,16.2169719 11.2165109,16.999999 10.2498952,16.999999 C9.28327903,16.999999 8.49984567,16.2169714 8.49984567,15.2503487 C8.49984567,14.2833182 9.28327903,13.5002865 10.2498952,13.5002865 M5.9998494,9.00006114 C6.96646509,9.00006114 7.74989896,9.78391389 7.74989896,10.7501352 C7.74989896,11.7163555 6.96646509,12.5002083 5.9998494,12.5002083 C5.03364268,12.5002083 4.24979983,11.7163555 4.24979983,10.7501352 C4.24979983,9.78391389 5.03364268,9.00006114 5.9998494,9.00006114 M5.9998494,13.5002865 C6.96646509,13.5002865 7.74989896,14.2833182 7.74989896,15.2503487 C7.74989896,16.2169719 6.96646509,16.999999 5.9998494,16.999999 C5.03364268,16.999999 4.24979983,16.2169714 4.24979983,15.2503487 C4.24979983,14.2833182 5.03364268,13.5002865 5.9998494,13.5002865 M1.75004905,13.5002865 C2.71584679,13.5002865 3.5000981,14.2833182 3.5000981,15.2503487 C3.5000981,16.2169719 2.71584679,16.999999 1.75004905,16.999999 C0.783025411,16.999999 0,16.2169714 0,15.2503487 C0,14.2833182 0.783024898,13.5002865 1.75004905,13.5002865" id="Shape"></path>
                </g>
                <g id="noun_Arrow-Up_355377" filter="url(#filter-2)" transform="translate(149.500000, 79.000000) rotate(-270.000000) translate(-149.500000, -79.000000) translate(135.000000, 70.500000)" fill="#FFFFFF" fill-rule="nonzero">
                    <path d="M27.2503584,13.500287 C28.2169761,13.500287 29,14.2833182 29,15.2503493 C29,16.2169719 28.2169766,17 27.2503584,17 C26.2837422,17 25.5003083,16.2169719 25.5003083,15.2503493 C25.5003083,14.2833182 26.2837422,13.500287 27.2503584,13.500287 M23.0001516,9.00006114 C23.9663599,9.00006114 24.7497922,9.78391389 24.7497922,10.7501352 C24.7497922,11.7163555 23.9663594,12.5002088 23.0001516,12.5002088 C22.0335365,12.5002088 21.2501021,11.7163555 21.2501021,10.7501352 C21.2501021,9.78391389 22.0335365,9.00006114 23.0001516,9.00006114 M23.0001516,13.500287 C23.9663599,13.500287 24.7497922,14.2833182 24.7497922,15.2503493 C24.7497922,16.2169719 23.9663594,17 23.0001516,17 C22.0335365,17 21.2501021,16.2169719 21.2501021,15.2503493 C21.2501021,14.2833182 22.0335365,13.500287 23.0001516,13.500287 M18.7501058,4.49982864 C19.716313,4.49982864 20.5001559,5.28367473 20.5001559,6.24989144 C20.5001559,7.21732995 19.716313,7.99954065 18.7501058,7.99954065 C17.7834891,7.99954065 16.9996473,7.21732995 16.9996473,6.24989144 C16.9996473,5.28367473 17.7834891,4.49982864 18.7501058,4.49982864 M18.7501058,9.00006114 C19.716313,9.00006114 20.5001559,9.78391389 20.5001559,10.7501352 C20.5001559,11.7163555 19.716313,12.5002083 18.7501058,12.5002083 C17.7834891,12.5002083 16.9996473,11.7163555 16.9996473,10.7501352 C16.9996473,9.78391389 17.7834891,9.00006114 18.7501058,9.00006114 M18.7501058,13.5002865 C19.716313,13.5002865 20.5001559,14.2833182 20.5001559,15.2503487 C20.5001559,16.2169719 19.716313,16.9999995 18.7501058,16.9999995 C17.7834891,16.9999995 16.9996473,16.2169719 16.9996473,15.2503487 C16.9996473,14.2833182 17.7834891,13.5002865 18.7501058,13.5002865 M14.500103,-1.42108547e-14 C15.4667192,-1.42108547e-14 16.2497431,0.783440699 16.2497431,1.74965382 C16.2497431,2.7162754 15.4667187,3.50012406 14.500103,3.50012406 C13.5334863,3.50012406 12.7500524,2.7162754 12.7500524,1.74965382 C12.7500524,0.783440699 13.5334868,-1.42108547e-14 14.500103,-1.42108547e-14 M14.500103,4.49982813 C15.4667192,4.49982813 16.2497431,5.28367422 16.2497431,6.24989144 C16.2497431,7.21732995 15.4667187,7.99954065 14.500103,7.99954065 C13.5334863,7.99954065 12.7500524,7.21732995 12.7500524,6.24989144 C12.7500524,5.28367473 13.5334868,4.49982813 14.500103,4.49982813 M14.500103,9.00006114 C15.4667192,9.00006114 16.2497431,9.78391389 16.2497431,10.7501352 C16.2497431,11.7163555 15.4667187,12.5002083 14.500103,12.5002083 C13.5334863,12.5002083 12.7500524,11.7163555 12.7500524,10.7501352 C12.7500524,9.78391389 13.5334868,9.00006114 14.500103,9.00006114 M14.500103,13.5002865 C15.4667192,13.5002865 16.2497431,14.2833182 16.2497431,15.2503487 C16.2497431,16.2169719 15.4667187,16.9999995 14.500103,16.9999995 C13.5334863,16.9999995 12.7500524,16.2169719 12.7500524,15.2503487 C12.7500524,14.2833182 13.5334868,13.5002865 14.500103,13.5002865 M10.2498952,4.49982864 C11.2165109,4.49982864 12.0003533,5.28367473 12.0003533,6.24989144 C12.0003533,7.21732995 11.2165109,7.99954065 10.2498952,7.99954065 C9.28327903,7.99954065 8.49984567,7.21732995 8.49984567,6.24989144 C8.49984567,5.28367473 9.28327903,4.49982864 10.2498952,4.49982864 M10.2498952,9.00006114 C11.2165109,9.00006114 12.0003533,9.78391389 12.0003533,10.7501352 C12.0003533,11.7163555 11.2165109,12.5002083 10.2498952,12.5002083 C9.28327903,12.5002083 8.49984567,11.7163555 8.49984567,10.7501352 C8.49984567,9.78391389 9.28327903,9.00006114 10.2498952,9.00006114 M10.2498952,13.5002865 C11.2165109,13.5002865 12.0003533,14.2833182 12.0003533,15.2503487 C12.0003533,16.2169719 11.2165109,16.999999 10.2498952,16.999999 C9.28327903,16.999999 8.49984567,16.2169714 8.49984567,15.2503487 C8.49984567,14.2833182 9.28327903,13.5002865 10.2498952,13.5002865 M5.9998494,9.00006114 C6.96646509,9.00006114 7.74989896,9.78391389 7.74989896,10.7501352 C7.74989896,11.7163555 6.96646509,12.5002083 5.9998494,12.5002083 C5.03364268,12.5002083 4.24979983,11.7163555 4.24979983,10.7501352 C4.24979983,9.78391389 5.03364268,9.00006114 5.9998494,9.00006114 M5.9998494,13.5002865 C6.96646509,13.5002865 7.74989896,14.2833182 7.74989896,15.2503487 C7.74989896,16.2169719 6.96646509,16.999999 5.9998494,16.999999 C5.03364268,16.999999 4.24979983,16.2169714 4.24979983,15.2503487 C4.24979983,14.2833182 5.03364268,13.5002865 5.9998494,13.5002865 M1.75004905,13.5002865 C2.71584679,13.5002865 3.5000981,14.2833182 3.5000981,15.2503487 C3.5000981,16.2169719 2.71584679,16.999999 1.75004905,16.999999 C0.783025411,16.999999 0,16.2169714 0,15.2503487 C0,14.2833182 0.783024898,13.5002865 1.75004905,13.5002865" id="Shape"></path>
                </g>
                <g id="noun_Arrow-Up_355377" filter="url(#filter-3)" transform="translate(8.500000, 79.000000) rotate(-90.000000) translate(-8.500000, -79.000000) translate(-6.000000, 70.500000)" fill="#FFFFFF" fill-rule="nonzero">
                    <path d="M27.2503584,13.500287 C28.2169761,13.500287 29,14.2833182 29,15.2503493 C29,16.2169719 28.2169766,17 27.2503584,17 C26.2837422,17 25.5003083,16.2169719 25.5003083,15.2503493 C25.5003083,14.2833182 26.2837422,13.500287 27.2503584,13.500287 M23.0001516,9.00006114 C23.9663599,9.00006114 24.7497922,9.78391389 24.7497922,10.7501352 C24.7497922,11.7163555 23.9663594,12.5002088 23.0001516,12.5002088 C22.0335365,12.5002088 21.2501021,11.7163555 21.2501021,10.7501352 C21.2501021,9.78391389 22.0335365,9.00006114 23.0001516,9.00006114 M23.0001516,13.500287 C23.9663599,13.500287 24.7497922,14.2833182 24.7497922,15.2503493 C24.7497922,16.2169719 23.9663594,17 23.0001516,17 C22.0335365,17 21.2501021,16.2169719 21.2501021,15.2503493 C21.2501021,14.2833182 22.0335365,13.500287 23.0001516,13.500287 M18.7501058,4.49982864 C19.716313,4.49982864 20.5001559,5.28367473 20.5001559,6.24989144 C20.5001559,7.21732995 19.716313,7.99954065 18.7501058,7.99954065 C17.7834891,7.99954065 16.9996473,7.21732995 16.9996473,6.24989144 C16.9996473,5.28367473 17.7834891,4.49982864 18.7501058,4.49982864 M18.7501058,9.00006114 C19.716313,9.00006114 20.5001559,9.78391389 20.5001559,10.7501352 C20.5001559,11.7163555 19.716313,12.5002083 18.7501058,12.5002083 C17.7834891,12.5002083 16.9996473,11.7163555 16.9996473,10.7501352 C16.9996473,9.78391389 17.7834891,9.00006114 18.7501058,9.00006114 M18.7501058,13.5002865 C19.716313,13.5002865 20.5001559,14.2833182 20.5001559,15.2503487 C20.5001559,16.2169719 19.716313,16.9999995 18.7501058,16.9999995 C17.7834891,16.9999995 16.9996473,16.2169719 16.9996473,15.2503487 C16.9996473,14.2833182 17.7834891,13.5002865 18.7501058,13.5002865 M14.500103,-1.42108547e-14 C15.4667192,-1.42108547e-14 16.2497431,0.783440699 16.2497431,1.74965382 C16.2497431,2.7162754 15.4667187,3.50012406 14.500103,3.50012406 C13.5334863,3.50012406 12.7500524,2.7162754 12.7500524,1.74965382 C12.7500524,0.783440699 13.5334868,-1.42108547e-14 14.500103,-1.42108547e-14 M14.500103,4.49982813 C15.4667192,4.49982813 16.2497431,5.28367422 16.2497431,6.24989144 C16.2497431,7.21732995 15.4667187,7.99954065 14.500103,7.99954065 C13.5334863,7.99954065 12.7500524,7.21732995 12.7500524,6.24989144 C12.7500524,5.28367473 13.5334868,4.49982813 14.500103,4.49982813 M14.500103,9.00006114 C15.4667192,9.00006114 16.2497431,9.78391389 16.2497431,10.7501352 C16.2497431,11.7163555 15.4667187,12.5002083 14.500103,12.5002083 C13.5334863,12.5002083 12.7500524,11.7163555 12.7500524,10.7501352 C12.7500524,9.78391389 13.5334868,9.00006114 14.500103,9.00006114 M14.500103,13.5002865 C15.4667192,13.5002865 16.2497431,14.2833182 16.2497431,15.2503487 C16.2497431,16.2169719 15.4667187,16.9999995 14.500103,16.9999995 C13.5334863,16.9999995 12.7500524,16.2169719 12.7500524,15.2503487 C12.7500524,14.2833182 13.5334868,13.5002865 14.500103,13.5002865 M10.2498952,4.49982864 C11.2165109,4.49982864 12.0003533,5.28367473 12.0003533,6.24989144 C12.0003533,7.21732995 11.2165109,7.99954065 10.2498952,7.99954065 C9.28327903,7.99954065 8.49984567,7.21732995 8.49984567,6.24989144 C8.49984567,5.28367473 9.28327903,4.49982864 10.2498952,4.49982864 M10.2498952,9.00006114 C11.2165109,9.00006114 12.0003533,9.78391389 12.0003533,10.7501352 C12.0003533,11.7163555 11.2165109,12.5002083 10.2498952,12.5002083 C9.28327903,12.5002083 8.49984567,11.7163555 8.49984567,10.7501352 C8.49984567,9.78391389 9.28327903,9.00006114 10.2498952,9.00006114 M10.2498952,13.5002865 C11.2165109,13.5002865 12.0003533,14.2833182 12.0003533,15.2503487 C12.0003533,16.2169719 11.2165109,16.999999 10.2498952,16.999999 C9.28327903,16.999999 8.49984567,16.2169714 8.49984567,15.2503487 C8.49984567,14.2833182 9.28327903,13.5002865 10.2498952,13.5002865 M5.9998494,9.00006114 C6.96646509,9.00006114 7.74989896,9.78391389 7.74989896,10.7501352 C7.74989896,11.7163555 6.96646509,12.5002083 5.9998494,12.5002083 C5.03364268,12.5002083 4.24979983,11.7163555 4.24979983,10.7501352 C4.24979983,9.78391389 5.03364268,9.00006114 5.9998494,9.00006114 M5.9998494,13.5002865 C6.96646509,13.5002865 7.74989896,14.2833182 7.74989896,15.2503487 C7.74989896,16.2169719 6.96646509,16.999999 5.9998494,16.999999 C5.03364268,16.999999 4.24979983,16.2169714 4.24979983,15.2503487 C4.24979983,14.2833182 5.03364268,13.5002865 5.9998494,13.5002865 M1.75004905,13.5002865 C2.71584679,13.5002865 3.5000981,14.2833182 3.5000981,15.2503487 C3.5000981,16.2169719 2.71584679,16.999999 1.75004905,16.999999 C0.783025411,16.999999 0,16.2169714 0,15.2503487 C0,14.2833182 0.783024898,13.5002865 1.75004905,13.5002865" id="Shape"></path>
                </g>
                <g id="noun_Arrow-Up_355377" filter="url(#filter-4)" transform="translate(78.500000, 149.000000) rotate(-180.000000) translate(-78.500000, -149.000000) translate(64.000000, 140.500000)" fill="#FFFFFF" fill-rule="nonzero">
                    <path d="M27.2503584,13.500287 C28.2169761,13.500287 29,14.2833182 29,15.2503493 C29,16.2169719 28.2169766,17 27.2503584,17 C26.2837422,17 25.5003083,16.2169719 25.5003083,15.2503493 C25.5003083,14.2833182 26.2837422,13.500287 27.2503584,13.500287 M23.0001516,9.00006114 C23.9663599,9.00006114 24.7497922,9.78391389 24.7497922,10.7501352 C24.7497922,11.7163555 23.9663594,12.5002088 23.0001516,12.5002088 C22.0335365,12.5002088 21.2501021,11.7163555 21.2501021,10.7501352 C21.2501021,9.78391389 22.0335365,9.00006114 23.0001516,9.00006114 M23.0001516,13.500287 C23.9663599,13.500287 24.7497922,14.2833182 24.7497922,15.2503493 C24.7497922,16.2169719 23.9663594,17 23.0001516,17 C22.0335365,17 21.2501021,16.2169719 21.2501021,15.2503493 C21.2501021,14.2833182 22.0335365,13.500287 23.0001516,13.500287 M18.7501058,4.49982864 C19.716313,4.49982864 20.5001559,5.28367473 20.5001559,6.24989144 C20.5001559,7.21732995 19.716313,7.99954065 18.7501058,7.99954065 C17.7834891,7.99954065 16.9996473,7.21732995 16.9996473,6.24989144 C16.9996473,5.28367473 17.7834891,4.49982864 18.7501058,4.49982864 M18.7501058,9.00006114 C19.716313,9.00006114 20.5001559,9.78391389 20.5001559,10.7501352 C20.5001559,11.7163555 19.716313,12.5002083 18.7501058,12.5002083 C17.7834891,12.5002083 16.9996473,11.7163555 16.9996473,10.7501352 C16.9996473,9.78391389 17.7834891,9.00006114 18.7501058,9.00006114 M18.7501058,13.5002865 C19.716313,13.5002865 20.5001559,14.2833182 20.5001559,15.2503487 C20.5001559,16.2169719 19.716313,16.9999995 18.7501058,16.9999995 C17.7834891,16.9999995 16.9996473,16.2169719 16.9996473,15.2503487 C16.9996473,14.2833182 17.7834891,13.5002865 18.7501058,13.5002865 M14.500103,-1.42108547e-14 C15.4667192,-1.42108547e-14 16.2497431,0.783440699 16.2497431,1.74965382 C16.2497431,2.7162754 15.4667187,3.50012406 14.500103,3.50012406 C13.5334863,3.50012406 12.7500524,2.7162754 12.7500524,1.74965382 C12.7500524,0.783440699 13.5334868,-1.42108547e-14 14.500103,-1.42108547e-14 M14.500103,4.49982813 C15.4667192,4.49982813 16.2497431,5.28367422 16.2497431,6.24989144 C16.2497431,7.21732995 15.4667187,7.99954065 14.500103,7.99954065 C13.5334863,7.99954065 12.7500524,7.21732995 12.7500524,6.24989144 C12.7500524,5.28367473 13.5334868,4.49982813 14.500103,4.49982813 M14.500103,9.00006114 C15.4667192,9.00006114 16.2497431,9.78391389 16.2497431,10.7501352 C16.2497431,11.7163555 15.4667187,12.5002083 14.500103,12.5002083 C13.5334863,12.5002083 12.7500524,11.7163555 12.7500524,10.7501352 C12.7500524,9.78391389 13.5334868,9.00006114 14.500103,9.00006114 M14.500103,13.5002865 C15.4667192,13.5002865 16.2497431,14.2833182 16.2497431,15.2503487 C16.2497431,16.2169719 15.4667187,16.9999995 14.500103,16.9999995 C13.5334863,16.9999995 12.7500524,16.2169719 12.7500524,15.2503487 C12.7500524,14.2833182 13.5334868,13.5002865 14.500103,13.5002865 M10.2498952,4.49982864 C11.2165109,4.49982864 12.0003533,5.28367473 12.0003533,6.24989144 C12.0003533,7.21732995 11.2165109,7.99954065 10.2498952,7.99954065 C9.28327903,7.99954065 8.49984567,7.21732995 8.49984567,6.24989144 C8.49984567,5.28367473 9.28327903,4.49982864 10.2498952,4.49982864 M10.2498952,9.00006114 C11.2165109,9.00006114 12.0003533,9.78391389 12.0003533,10.7501352 C12.0003533,11.7163555 11.2165109,12.5002083 10.2498952,12.5002083 C9.28327903,12.5002083 8.49984567,11.7163555 8.49984567,10.7501352 C8.49984567,9.78391389 9.28327903,9.00006114 10.2498952,9.00006114 M10.2498952,13.5002865 C11.2165109,13.5002865 12.0003533,14.2833182 12.0003533,15.2503487 C12.0003533,16.2169719 11.2165109,16.999999 10.2498952,16.999999 C9.28327903,16.999999 8.49984567,16.2169714 8.49984567,15.2503487 C8.49984567,14.2833182 9.28327903,13.5002865 10.2498952,13.5002865 M5.9998494,9.00006114 C6.96646509,9.00006114 7.74989896,9.78391389 7.74989896,10.7501352 C7.74989896,11.7163555 6.96646509,12.5002083 5.9998494,12.5002083 C5.03364268,12.5002083 4.24979983,11.7163555 4.24979983,10.7501352 C4.24979983,9.78391389 5.03364268,9.00006114 5.9998494,9.00006114 M5.9998494,13.5002865 C6.96646509,13.5002865 7.74989896,14.2833182 7.74989896,15.2503487 C7.74989896,16.2169719 6.96646509,16.999999 5.9998494,16.999999 C5.03364268,16.999999 4.24979983,16.2169714 4.24979983,15.2503487 C4.24979983,14.2833182 5.03364268,13.5002865 5.9998494,13.5002865 M1.75004905,13.5002865 C2.71584679,13.5002865 3.5000981,14.2833182 3.5000981,15.2503487 C3.5000981,16.2169719 2.71584679,16.999999 1.75004905,16.999999 C0.783025411,16.999999 0,16.2169714 0,15.2503487 C0,14.2833182 0.783024898,13.5002865 1.75004905,13.5002865" id="Shape"></path>
                </g>
                <g id="noun_hand-cursor_300457" transform="translate(61.000000, 63.000000)"></g>
            </g>
        </g>
    </g>
</svg>