<?xml version="1.0" encoding="UTF-8"?>
<svg width="58px" height="58px" viewBox="0 0 58 58" version="1.1" xmlns="http://www.w3.org/2000/svg" xmlns:xlink="http://www.w3.org/1999/xlink">
    <!-- Generator: Sketch 59.1 (86144) - https://sketch.com -->
    <title>wizard</title>
    <desc>Created with Sketch.</desc>
    <g id="Page-1" stroke="none" stroke-width="1" fill="none" fill-rule="evenodd">
        <g id="05-Magnify" transform="translate(-551.000000, -112.000000)">
            <g id="Tip1" transform="translate(537.000000, 91.000000)">
                <g id="wizard." transform="translate(14.000000, 21.000000)">
                    <circle id="Oval-4" stroke="#FFFFFF" stroke-width="3" fill="#000000" cx="29" cy="29" r="18"></circle>
                    <path d="M33.5,23.75 C33.19175,23.75 32.9045,23.84375 32.666,24.0035 C32.4605,23.42 31.90325,23 31.25,23 C30.80225,23 30.40025,23.19725 30.125,23.50925 C29.84975,23.19725 29.44775,23 29,23 C28.34675,23 27.7895,23.42 27.584,24.0035 C27.3455,23.84375 27.059,23.75 26.75,23.75 C25.92275,23.75 25.25,24.42275 25.25,25.25 L25.25,26.95175 C25.0295,26.8235 24.773,26.75 24.5,26.75 C23.67275,26.75 23,27.42275 23,28.25 L23,30.875 C23,32.27 23.95775,33.44675 25.25,33.77975 L25.25,35 L33.5,35 L33.5,34.12175 C34.373,33.812 35,32.978 35,32 L35,25.25 C35,24.42275 34.32725,23.75 33.5,23.75 Z M34.25,32 C34.25,32.828 33.578,33.5 32.75,33.5 L32.75,34.25 L26,34.25 L26,33.125 C24.75725,33.125 23.75,32.11775 23.75,30.875 L23.75,28.25 C23.75,27.836 24.086,27.5 24.5,27.5 C24.914,27.5 25.25,27.836 25.25,28.25 L25.25,30.125 C25.25,30.332 25.418,30.5 25.625,30.5 C25.832,30.5 26,30.332 26,30.125 L26,25.25 C26,24.836 26.336,24.5 26.75,24.5 C27.164,24.5 27.5,24.836 27.5,25.25 L27.5,27.875 C27.5,28.082 27.668,28.25 27.875,28.25 C28.082,28.25 28.25,28.082 28.25,27.875 L28.25,24.5 C28.25,24.086 28.586,23.75 29,23.75 C29.41475,23.75 29.75,24.086 29.75,24.5 L29.75,27.875 C29.75,28.082 29.918,28.25 30.125,28.25 C30.332,28.25 30.5,28.082 30.5,27.875 L30.5,24.5 C30.5,24.086 30.83525,23.75 31.25,23.75 C31.66475,23.75 32,24.086 32,24.5 L32,27.875 C32,28.082 32.168,28.25 32.375,28.25 C32.582,28.25 32.75,28.082 32.75,27.875 L32.75,25.25 C32.75,24.836 33.08525,24.5 33.5,24.5 C33.91475,24.5 34.25,24.836 34.25,25.25 L34.25,32 Z" id="Shape" fill="#FFFFFF" fill-rule="nonzero"></path>
                    <g id="noun_Arrow-Up_355377" transform="translate(24.000000, 0.000000)" fill="#000000" fill-rule="nonzero">
                        <path d="M10.3363428,4.76480717 C10.7029909,4.76480717 11,5.04117112 11,5.38247621 C11,5.72363713 10.7029911,6 10.3363428,6 C9.96969531,6 9.67253074,5.72363713 9.67253074,5.38247621 C9.67253074,5.04117112 9.96969531,4.76480717 10.3363428,4.76480717 M8.72419545,3.17649217 C9.09068823,3.17649217 9.38785222,3.45314608 9.38785222,3.79416537 C9.38785222,4.1351843 9.09068804,4.41183839 8.72419545,4.41183839 C8.35754831,4.41183839 8.06038354,4.1351843 8.06038354,3.79416537 C8.06038354,3.45314608 8.35754831,3.17649217 8.72419545,3.17649217 M8.72419545,4.76480717 C9.09068823,4.76480717 9.38785222,5.04117112 9.38785222,5.38247621 C9.38785222,5.72363713 9.09068804,6 8.72419545,6 C8.35754831,6 8.06038354,5.72363713 8.06038354,5.38247621 C8.06038354,5.04117112 8.35754831,4.76480717 8.72419545,4.76480717 M7.11210909,1.58817482 C7.47860149,1.58817482 7.77592119,1.86482638 7.77592119,2.20584404 C7.77592119,2.54729292 7.47860149,2.82336729 7.11210909,2.82336729 C6.74546138,2.82336729 6.44814206,2.54729292 6.44814206,2.20584404 C6.44814206,1.86482638 6.74546138,1.58817482 7.11210909,1.58817482 M7.11210909,3.17649217 C7.47860149,3.17649217 7.77592119,3.45314608 7.77592119,3.79416537 C7.77592119,4.1351843 7.47860149,4.41183821 7.11210909,4.41183821 C6.74546138,4.41183821 6.44814206,4.1351843 6.44814206,3.79416537 C6.44814206,3.45314608 6.74546138,3.17649217 7.11210909,3.17649217 M7.11210909,4.76480699 C7.47860149,4.76480699 7.77592119,5.04117112 7.77592119,5.38247603 C7.77592119,5.72363713 7.47860149,5.99999982 7.11210909,5.99999982 C6.74546138,5.99999982 6.44814206,5.72363713 6.44814206,5.38247603 C6.44814206,5.04117112 6.74546138,4.76480699 7.11210909,4.76480699 M5.50003907,-1.42108547e-14 C5.8666866,-1.42108547e-14 6.16369565,0.276508482 6.16369565,0.617524878 C6.16369565,0.958685437 5.8666864,1.2353379 5.50003907,1.2353379 C5.13339135,1.2353379 4.83622678,0.958685437 4.83622678,0.617524878 C4.83622678,0.276508482 5.13339155,-1.42108547e-14 5.50003907,-1.42108547e-14 M5.50003907,1.58817463 C5.8666866,1.58817463 6.16369565,1.8648262 6.16369565,2.20584404 C6.16369565,2.54729292 5.8666864,2.82336729 5.50003907,2.82336729 C5.13339135,2.82336729 4.83622678,2.54729292 4.83622678,2.20584404 C4.83622678,1.86482638 5.13339155,1.58817463 5.50003907,1.58817463 M5.50003907,3.17649217 C5.8666866,3.17649217 6.16369565,3.45314608 6.16369565,3.79416537 C6.16369565,4.1351843 5.8666864,4.41183821 5.50003907,4.41183821 C5.13339135,4.41183821 4.83622678,4.1351843 4.83622678,3.79416537 C4.83622678,3.45314608 5.13339155,3.17649217 5.50003907,3.17649217 M5.50003907,4.76480699 C5.8666866,4.76480699 6.16369565,5.04117112 6.16369565,5.38247603 C6.16369565,5.72363713 5.8666864,5.99999982 5.50003907,5.99999982 C5.13339135,5.99999982 4.83622678,5.72363713 4.83622678,5.38247603 C4.83622678,5.04117112 5.13339155,4.76480699 5.50003907,4.76480699 M3.88789129,1.58817482 C4.25453862,1.58817482 4.55185813,1.86482638 4.55185813,2.20584404 C4.55185813,2.54729292 4.25453862,2.82336729 3.88789129,2.82336729 C3.52124377,2.82336729 3.22407939,2.54729292 3.22407939,2.20584404 C3.22407939,1.86482638 3.52124377,1.58817482 3.88789129,1.58817482 M3.88789129,3.17649217 C4.25453862,3.17649217 4.55185813,3.45314608 4.55185813,3.79416537 C4.55185813,4.1351843 4.25453862,4.41183821 3.88789129,4.41183821 C3.52124377,4.41183821 3.22407939,4.1351843 3.22407939,3.79416537 C3.22407939,3.45314608 3.52124377,3.17649217 3.88789129,3.17649217 M3.88789129,4.76480699 C4.25453862,4.76480699 4.55185813,5.04117112 4.55185813,5.38247603 C4.55185813,5.72363713 4.25453862,5.99999964 3.88789129,5.99999964 C3.52124377,5.99999964 3.22407939,5.72363695 3.22407939,5.38247603 C3.22407939,5.04117112 3.52124377,4.76480699 3.88789129,4.76480699 M2.27580494,3.17649217 C2.64245227,3.17649217 2.93961685,3.45314608 2.93961685,3.79416537 C2.93961685,4.1351843 2.64245227,4.41183821 2.27580494,4.41183821 C1.90931274,4.41183821 1.61199304,4.1351843 1.61199304,3.79416537 C1.61199304,3.45314608 1.90931274,3.17649217 2.27580494,3.17649217 M2.27580494,4.76480699 C2.64245227,4.76480699 2.93961685,5.04117112 2.93961685,5.38247603 C2.93961685,5.72363713 2.64245227,5.99999964 2.27580494,5.99999964 C1.90931274,5.99999964 1.61199304,5.72363695 1.61199304,5.38247603 C1.61199304,5.04117112 1.90931274,4.76480699 2.27580494,4.76480699 M0.663811708,4.76480699 C1.03014878,4.76480699 1.32762342,5.04117112 1.32762342,5.38247603 C1.32762342,5.72363713 1.03014878,5.99999964 0.663811708,5.99999964 C0.297009639,5.99999964 0,5.72363695 0,5.38247603 C0,5.04117112 0.297009444,4.76480699 0.663811708,4.76480699" id="Shape"></path>
                    </g>
                    <g id="noun_Arrow-Up_355377" transform="translate(54.500000, 29.000000) rotate(-270.000000) translate(-54.500000, -29.000000) translate(49.000000, 26.000000)" fill="#000000" fill-rule="nonzero">
                        <path d="M10.3363428,4.76480717 C10.7029909,4.76480717 11,5.04117112 11,5.38247621 C11,5.72363713 10.7029911,6 10.3363428,6 C9.96969531,6 9.67253074,5.72363713 9.67253074,5.38247621 C9.67253074,5.04117112 9.96969531,4.76480717 10.3363428,4.76480717 M8.72419545,3.17649217 C9.09068823,3.17649217 9.38785222,3.45314608 9.38785222,3.79416537 C9.38785222,4.1351843 9.09068804,4.41183839 8.72419545,4.41183839 C8.35754831,4.41183839 8.06038354,4.1351843 8.06038354,3.79416537 C8.06038354,3.45314608 8.35754831,3.17649217 8.72419545,3.17649217 M8.72419545,4.76480717 C9.09068823,4.76480717 9.38785222,5.04117112 9.38785222,5.38247621 C9.38785222,5.72363713 9.09068804,6 8.72419545,6 C8.35754831,6 8.06038354,5.72363713 8.06038354,5.38247621 C8.06038354,5.04117112 8.35754831,4.76480717 8.72419545,4.76480717 M7.11210909,1.58817482 C7.47860149,1.58817482 7.77592119,1.86482638 7.77592119,2.20584404 C7.77592119,2.54729292 7.47860149,2.82336729 7.11210909,2.82336729 C6.74546138,2.82336729 6.44814206,2.54729292 6.44814206,2.20584404 C6.44814206,1.86482638 6.74546138,1.58817482 7.11210909,1.58817482 M7.11210909,3.17649217 C7.47860149,3.17649217 7.77592119,3.45314608 7.77592119,3.79416537 C7.77592119,4.1351843 7.47860149,4.41183821 7.11210909,4.41183821 C6.74546138,4.41183821 6.44814206,4.1351843 6.44814206,3.79416537 C6.44814206,3.45314608 6.74546138,3.17649217 7.11210909,3.17649217 M7.11210909,4.76480699 C7.47860149,4.76480699 7.77592119,5.04117112 7.77592119,5.38247603 C7.77592119,5.72363713 7.47860149,5.99999982 7.11210909,5.99999982 C6.74546138,5.99999982 6.44814206,5.72363713 6.44814206,5.38247603 C6.44814206,5.04117112 6.74546138,4.76480699 7.11210909,4.76480699 M5.50003907,-1.42108547e-14 C5.8666866,-1.42108547e-14 6.16369565,0.276508482 6.16369565,0.617524878 C6.16369565,0.958685437 5.8666864,1.2353379 5.50003907,1.2353379 C5.13339135,1.2353379 4.83622678,0.958685437 4.83622678,0.617524878 C4.83622678,0.276508482 5.13339155,-1.42108547e-14 5.50003907,-1.42108547e-14 M5.50003907,1.58817463 C5.8666866,1.58817463 6.16369565,1.8648262 6.16369565,2.20584404 C6.16369565,2.54729292 5.8666864,2.82336729 5.50003907,2.82336729 C5.13339135,2.82336729 4.83622678,2.54729292 4.83622678,2.20584404 C4.83622678,1.86482638 5.13339155,1.58817463 5.50003907,1.58817463 M5.50003907,3.17649217 C5.8666866,3.17649217 6.16369565,3.45314608 6.16369565,3.79416537 C6.16369565,4.1351843 5.8666864,4.41183821 5.50003907,4.41183821 C5.13339135,4.41183821 4.83622678,4.1351843 4.83622678,3.79416537 C4.83622678,3.45314608 5.13339155,3.17649217 5.50003907,3.17649217 M5.50003907,4.76480699 C5.8666866,4.76480699 6.16369565,5.04117112 6.16369565,5.38247603 C6.16369565,5.72363713 5.8666864,5.99999982 5.50003907,5.99999982 C5.13339135,5.99999982 4.83622678,5.72363713 4.83622678,5.38247603 C4.83622678,5.04117112 5.13339155,4.76480699 5.50003907,4.76480699 M3.88789129,1.58817482 C4.25453862,1.58817482 4.55185813,1.86482638 4.55185813,2.20584404 C4.55185813,2.54729292 4.25453862,2.82336729 3.88789129,2.82336729 C3.52124377,2.82336729 3.22407939,2.54729292 3.22407939,2.20584404 C3.22407939,1.86482638 3.52124377,1.58817482 3.88789129,1.58817482 M3.88789129,3.17649217 C4.25453862,3.17649217 4.55185813,3.45314608 4.55185813,3.79416537 C4.55185813,4.1351843 4.25453862,4.41183821 3.88789129,4.41183821 C3.52124377,4.41183821 3.22407939,4.1351843 3.22407939,3.79416537 C3.22407939,3.45314608 3.52124377,3.17649217 3.88789129,3.17649217 M3.88789129,4.76480699 C4.25453862,4.76480699 4.55185813,5.04117112 4.55185813,5.38247603 C4.55185813,5.72363713 4.25453862,5.99999964 3.88789129,5.99999964 C3.52124377,5.99999964 3.22407939,5.72363695 3.22407939,5.38247603 C3.22407939,5.04117112 3.52124377,4.76480699 3.88789129,4.76480699 M2.27580494,3.17649217 C2.64245227,3.17649217 2.93961685,3.45314608 2.93961685,3.79416537 C2.93961685,4.1351843 2.64245227,4.41183821 2.27580494,4.41183821 C1.90931274,4.41183821 1.61199304,4.1351843 1.61199304,3.79416537 C1.61199304,3.45314608 1.90931274,3.17649217 2.27580494,3.17649217 M2.27580494,4.76480699 C2.64245227,4.76480699 2.93961685,5.04117112 2.93961685,5.38247603 C2.93961685,5.72363713 2.64245227,5.99999964 2.27580494,5.99999964 C1.90931274,5.99999964 1.61199304,5.72363695 1.61199304,5.38247603 C1.61199304,5.04117112 1.90931274,4.76480699 2.27580494,4.76480699 M0.663811708,4.76480699 C1.03014878,4.76480699 1.32762342,5.04117112 1.32762342,5.38247603 C1.32762342,5.72363713 1.03014878,5.99999964 0.663811708,5.99999964 C0.297009639,5.99999964 0,5.72363695 0,5.38247603 C0,5.04117112 0.297009444,4.76480699 0.663811708,4.76480699" id="Shape"></path>
                    </g>
                    <g id="noun_Arrow-Up_355377" transform="translate(3.500000, 29.000000) rotate(-90.000000) translate(-3.500000, -29.000000) translate(-2.000000, 26.000000)" fill="#000000" fill-rule="nonzero">
                        <path d="M10.3363428,4.76480717 C10.7029909,4.76480717 11,5.04117112 11,5.38247621 C11,5.72363713 10.7029911,6 10.3363428,6 C9.96969531,6 9.67253074,5.72363713 9.67253074,5.38247621 C9.67253074,5.04117112 9.96969531,4.76480717 10.3363428,4.76480717 M8.72419545,3.17649217 C9.09068823,3.17649217 9.38785222,3.45314608 9.38785222,3.79416537 C9.38785222,4.1351843 9.09068804,4.41183839 8.72419545,4.41183839 C8.35754831,4.41183839 8.06038354,4.1351843 8.06038354,3.79416537 C8.06038354,3.45314608 8.35754831,3.17649217 8.72419545,3.17649217 M8.72419545,4.76480717 C9.09068823,4.76480717 9.38785222,5.04117112 9.38785222,5.38247621 C9.38785222,5.72363713 9.09068804,6 8.72419545,6 C8.35754831,6 8.06038354,5.72363713 8.06038354,5.38247621 C8.06038354,5.04117112 8.35754831,4.76480717 8.72419545,4.76480717 M7.11210909,1.58817482 C7.47860149,1.58817482 7.77592119,1.86482638 7.77592119,2.20584404 C7.77592119,2.54729292 7.47860149,2.82336729 7.11210909,2.82336729 C6.74546138,2.82336729 6.44814206,2.54729292 6.44814206,2.20584404 C6.44814206,1.86482638 6.74546138,1.58817482 7.11210909,1.58817482 M7.11210909,3.17649217 C7.47860149,3.17649217 7.77592119,3.45314608 7.77592119,3.79416537 C7.77592119,4.1351843 7.47860149,4.41183821 7.11210909,4.41183821 C6.74546138,4.41183821 6.44814206,4.1351843 6.44814206,3.79416537 C6.44814206,3.45314608 6.74546138,3.17649217 7.11210909,3.17649217 M7.11210909,4.76480699 C7.47860149,4.76480699 7.77592119,5.04117112 7.77592119,5.38247603 C7.77592119,5.72363713 7.47860149,5.99999982 7.11210909,5.99999982 C6.74546138,5.99999982 6.44814206,5.72363713 6.44814206,5.38247603 C6.44814206,5.04117112 6.74546138,4.76480699 7.11210909,4.76480699 M5.50003907,-1.42108547e-14 C5.8666866,-1.42108547e-14 6.16369565,0.276508482 6.16369565,0.617524878 C6.16369565,0.958685437 5.8666864,1.2353379 5.50003907,1.2353379 C5.13339135,1.2353379 4.83622678,0.958685437 4.83622678,0.617524878 C4.83622678,0.276508482 5.13339155,-1.42108547e-14 5.50003907,-1.42108547e-14 M5.50003907,1.58817463 C5.8666866,1.58817463 6.16369565,1.8648262 6.16369565,2.20584404 C6.16369565,2.54729292 5.8666864,2.82336729 5.50003907,2.82336729 C5.13339135,2.82336729 4.83622678,2.54729292 4.83622678,2.20584404 C4.83622678,1.86482638 5.13339155,1.58817463 5.50003907,1.58817463 M5.50003907,3.17649217 C5.8666866,3.17649217 6.16369565,3.45314608 6.16369565,3.79416537 C6.16369565,4.1351843 5.8666864,4.41183821 5.50003907,4.41183821 C5.13339135,4.41183821 4.83622678,4.1351843 4.83622678,3.79416537 C4.83622678,3.45314608 5.13339155,3.17649217 5.50003907,3.17649217 M5.50003907,4.76480699 C5.8666866,4.76480699 6.16369565,5.04117112 6.16369565,5.38247603 C6.16369565,5.72363713 5.8666864,5.99999982 5.50003907,5.99999982 C5.13339135,5.99999982 4.83622678,5.72363713 4.83622678,5.38247603 C4.83622678,5.04117112 5.13339155,4.76480699 5.50003907,4.76480699 M3.88789129,1.58817482 C4.25453862,1.58817482 4.55185813,1.86482638 4.55185813,2.20584404 C4.55185813,2.54729292 4.25453862,2.82336729 3.88789129,2.82336729 C3.52124377,2.82336729 3.22407939,2.54729292 3.22407939,2.20584404 C3.22407939,1.86482638 3.52124377,1.58817482 3.88789129,1.58817482 M3.88789129,3.17649217 C4.25453862,3.17649217 4.55185813,3.45314608 4.55185813,3.79416537 C4.55185813,4.1351843 4.25453862,4.41183821 3.88789129,4.41183821 C3.52124377,4.41183821 3.22407939,4.1351843 3.22407939,3.79416537 C3.22407939,3.45314608 3.52124377,3.17649217 3.88789129,3.17649217 M3.88789129,4.76480699 C4.25453862,4.76480699 4.55185813,5.04117112 4.55185813,5.38247603 C4.55185813,5.72363713 4.25453862,5.99999964 3.88789129,5.99999964 C3.52124377,5.99999964 3.22407939,5.72363695 3.22407939,5.38247603 C3.22407939,5.04117112 3.52124377,4.76480699 3.88789129,4.76480699 M2.27580494,3.17649217 C2.64245227,3.17649217 2.93961685,3.45314608 2.93961685,3.79416537 C2.93961685,4.1351843 2.64245227,4.41183821 2.27580494,4.41183821 C1.90931274,4.41183821 1.61199304,4.1351843 1.61199304,3.79416537 C1.61199304,3.45314608 1.90931274,3.17649217 2.27580494,3.17649217 M2.27580494,4.76480699 C2.64245227,4.76480699 2.93961685,5.04117112 2.93961685,5.38247603 C2.93961685,5.72363713 2.64245227,5.99999964 2.27580494,5.99999964 C1.90931274,5.99999964 1.61199304,5.72363695 1.61199304,5.38247603 C1.61199304,5.04117112 1.90931274,4.76480699 2.27580494,4.76480699 M0.663811708,4.76480699 C1.03014878,4.76480699 1.32762342,5.04117112 1.32762342,5.38247603 C1.32762342,5.72363713 1.03014878,5.99999964 0.663811708,5.99999964 C0.297009639,5.99999964 0,5.72363695 0,5.38247603 C0,5.04117112 0.297009444,4.76480699 0.663811708,4.76480699" id="Shape"></path>
                    </g>
                    <g id="noun_Arrow-Up_355377" transform="translate(29.500000, 55.000000) rotate(-180.000000) translate(-29.500000, -55.000000) translate(24.000000, 52.000000)" fill="#050505" fill-rule="nonzero">
                        <path d="M10.3363428,4.76480717 C10.7029909,4.76480717 11,5.04117112 11,5.38247621 C11,5.72363713 10.7029911,6 10.3363428,6 C9.96969531,6 9.67253074,5.72363713 9.67253074,5.38247621 C9.67253074,5.04117112 9.96969531,4.76480717 10.3363428,4.76480717 M8.72419545,3.17649217 C9.09068823,3.17649217 9.38785222,3.45314608 9.38785222,3.79416537 C9.38785222,4.1351843 9.09068804,4.41183839 8.72419545,4.41183839 C8.35754831,4.41183839 8.06038354,4.1351843 8.06038354,3.79416537 C8.06038354,3.45314608 8.35754831,3.17649217 8.72419545,3.17649217 M8.72419545,4.76480717 C9.09068823,4.76480717 9.38785222,5.04117112 9.38785222,5.38247621 C9.38785222,5.72363713 9.09068804,6 8.72419545,6 C8.35754831,6 8.06038354,5.72363713 8.06038354,5.38247621 C8.06038354,5.04117112 8.35754831,4.76480717 8.72419545,4.76480717 M7.11210909,1.58817482 C7.47860149,1.58817482 7.77592119,1.86482638 7.77592119,2.20584404 C7.77592119,2.54729292 7.47860149,2.82336729 7.11210909,2.82336729 C6.74546138,2.82336729 6.44814206,2.54729292 6.44814206,2.20584404 C6.44814206,1.86482638 6.74546138,1.58817482 7.11210909,1.58817482 M7.11210909,3.17649217 C7.47860149,3.17649217 7.77592119,3.45314608 7.77592119,3.79416537 C7.77592119,4.1351843 7.47860149,4.41183821 7.11210909,4.41183821 C6.74546138,4.41183821 6.44814206,4.1351843 6.44814206,3.79416537 C6.44814206,3.45314608 6.74546138,3.17649217 7.11210909,3.17649217 M7.11210909,4.76480699 C7.47860149,4.76480699 7.77592119,5.04117112 7.77592119,5.38247603 C7.77592119,5.72363713 7.47860149,5.99999982 7.11210909,5.99999982 C6.74546138,5.99999982 6.44814206,5.72363713 6.44814206,5.38247603 C6.44814206,5.04117112 6.74546138,4.76480699 7.11210909,4.76480699 M5.50003907,-1.42108547e-14 C5.8666866,-1.42108547e-14 6.16369565,0.276508482 6.16369565,0.617524878 C6.16369565,0.958685437 5.8666864,1.2353379 5.50003907,1.2353379 C5.13339135,1.2353379 4.83622678,0.958685437 4.83622678,0.617524878 C4.83622678,0.276508482 5.13339155,-1.42108547e-14 5.50003907,-1.42108547e-14 M5.50003907,1.58817463 C5.8666866,1.58817463 6.16369565,1.8648262 6.16369565,2.20584404 C6.16369565,2.54729292 5.8666864,2.82336729 5.50003907,2.82336729 C5.13339135,2.82336729 4.83622678,2.54729292 4.83622678,2.20584404 C4.83622678,1.86482638 5.13339155,1.58817463 5.50003907,1.58817463 M5.50003907,3.17649217 C5.8666866,3.17649217 6.16369565,3.45314608 6.16369565,3.79416537 C6.16369565,4.1351843 5.8666864,4.41183821 5.50003907,4.41183821 C5.13339135,4.41183821 4.83622678,4.1351843 4.83622678,3.79416537 C4.83622678,3.45314608 5.13339155,3.17649217 5.50003907,3.17649217 M5.50003907,4.76480699 C5.8666866,4.76480699 6.16369565,5.04117112 6.16369565,5.38247603 C6.16369565,5.72363713 5.8666864,5.99999982 5.50003907,5.99999982 C5.13339135,5.99999982 4.83622678,5.72363713 4.83622678,5.38247603 C4.83622678,5.04117112 5.13339155,4.76480699 5.50003907,4.76480699 M3.88789129,1.58817482 C4.25453862,1.58817482 4.55185813,1.86482638 4.55185813,2.20584404 C4.55185813,2.54729292 4.25453862,2.82336729 3.88789129,2.82336729 C3.52124377,2.82336729 3.22407939,2.54729292 3.22407939,2.20584404 C3.22407939,1.86482638 3.52124377,1.58817482 3.88789129,1.58817482 M3.88789129,3.17649217 C4.25453862,3.17649217 4.55185813,3.45314608 4.55185813,3.79416537 C4.55185813,4.1351843 4.25453862,4.41183821 3.88789129,4.41183821 C3.52124377,4.41183821 3.22407939,4.1351843 3.22407939,3.79416537 C3.22407939,3.45314608 3.52124377,3.17649217 3.88789129,3.17649217 M3.88789129,4.76480699 C4.25453862,4.76480699 4.55185813,5.04117112 4.55185813,5.38247603 C4.55185813,5.72363713 4.25453862,5.99999964 3.88789129,5.99999964 C3.52124377,5.99999964 3.22407939,5.72363695 3.22407939,5.38247603 C3.22407939,5.04117112 3.52124377,4.76480699 3.88789129,4.76480699 M2.27580494,3.17649217 C2.64245227,3.17649217 2.93961685,3.45314608 2.93961685,3.79416537 C2.93961685,4.1351843 2.64245227,4.41183821 2.27580494,4.41183821 C1.90931274,4.41183821 1.61199304,4.1351843 1.61199304,3.79416537 C1.61199304,3.45314608 1.90931274,3.17649217 2.27580494,3.17649217 M2.27580494,4.76480699 C2.64245227,4.76480699 2.93961685,5.04117112 2.93961685,5.38247603 C2.93961685,5.72363713 2.64245227,5.99999964 2.27580494,5.99999964 C1.90931274,5.99999964 1.61199304,5.72363695 1.61199304,5.38247603 C1.61199304,5.04117112 1.90931274,4.76480699 2.27580494,4.76480699 M0.663811708,4.76480699 C1.03014878,4.76480699 1.32762342,5.04117112 1.32762342,5.38247603 C1.32762342,5.72363713 1.03014878,5.99999964 0.663811708,5.99999964 C0.297009639,5.99999964 0,5.72363695 0,5.38247603 C0,5.04117112 0.297009444,4.76480699 0.663811708,4.76480699" id="Shape"></path>
                    </g>
                    <g id="noun_hand-cursor_300457" transform="translate(23.000000, 23.000000)"></g>
                </g>
            </g>
        </g>
    </g>
</svg>